<?xml version="1.0" encoding="utf-8"?>
<!-- Generator: Adobe Illustrator 15.0.2, SVG Export Plug-In . SVG Version: 6.00 Build 0)  -->
<!DOCTYPE svg PUBLIC "-//W3C//DTD SVG 1.1//EN" "http://www.w3.org/Graphics/SVG/1.1/DTD/svg11.dtd">
<svg version="1.1" id="Layer_1" xmlns="http://www.w3.org/2000/svg" xmlns:xlink="http://www.w3.org/1999/xlink" x="0px" y="0px"
	 width="389.495px" height="93px" viewBox="0 0 389.495 93" enable-background="new 0 0 389.495 93" xml:space="preserve">
<g>
	<path fill="#536A7F" d="M73.7,75.15H60.6c-1.467,0-2.65-0.342-3.55-1.025S55.466,72.566,55,71.5l-4.3-12.7H23l-4.3,12.7
		c-0.367,0.934-1.025,1.775-1.975,2.525c-0.95,0.75-2.125,1.125-3.525,1.125H0L28.2,2.3h17.3L73.7,75.15z M46.85,47.3L40.1,27.35
		c-0.5-1.267-1.033-2.758-1.6-4.475c-0.567-1.716-1.134-3.575-1.7-5.575c-0.5,2.034-1.034,3.917-1.6,5.65
		c-0.567,1.734-1.1,3.234-1.6,4.5L26.9,47.3H46.85z"/>
	<path fill="#536A7F" d="M124.699,24.9v5.65c0,0.867-0.242,1.55-0.725,2.05c-0.484,0.5-1.309,0.883-2.475,1.15l-3.75,0.85
		c0.2,0.733,0.358,1.483,0.475,2.25c0.116,0.767,0.175,1.567,0.175,2.4c0,2.6-0.542,4.934-1.625,7
		c-1.083,2.066-2.567,3.824-4.45,5.275c-1.883,1.449-4.108,2.566-6.675,3.35c-2.567,0.783-5.317,1.175-8.25,1.175
		c-0.8,0-1.583-0.024-2.35-0.075c-0.767-0.05-1.517-0.141-2.25-0.275c-1.133,0.701-1.7,1.484-1.7,2.351
		c0,0.867,0.466,1.492,1.4,1.875c0.933,0.384,2.167,0.649,3.7,0.8s3.275,0.25,5.225,0.301c1.95,0.049,3.941,0.166,5.975,0.35
		c2.033,0.184,4.025,0.492,5.975,0.925c1.95,0.434,3.691,1.134,5.225,2.101c1.533,0.967,2.766,2.258,3.7,3.875
		c0.933,1.617,1.4,3.674,1.4,6.174c0,2.334-0.567,4.617-1.7,6.851c-1.134,2.233-2.8,4.216-5,5.95c-2.2,1.732-4.9,3.125-8.1,4.175
		S102.032,93,97.899,93c-4.067,0-7.575-0.384-10.525-1.15c-2.95-0.768-5.4-1.775-7.35-3.025s-3.392-2.691-4.325-4.324
		c-0.934-1.634-1.4-3.334-1.4-5.1c0-2.301,0.667-4.218,2-5.75c1.333-1.533,3.2-2.768,5.6-3.701c-1.267-0.766-2.267-1.75-3-2.949
		c-0.733-1.2-1.1-2.75-1.1-4.65c0-0.766,0.133-1.574,0.4-2.425c0.267-0.851,0.691-1.683,1.275-2.5
		c0.583-0.816,1.308-1.591,2.175-2.325c0.866-0.732,1.9-1.383,3.1-1.949c-2.7-1.434-4.833-3.326-6.4-5.675
		C76.782,45.125,76,42.383,76,39.25c0-2.6,0.55-4.941,1.65-7.025c1.1-2.083,2.608-3.85,4.525-5.3c1.917-1.45,4.175-2.566,6.775-3.35
		c2.6-0.783,5.417-1.175,8.45-1.175c4.4,0,8.3,0.833,11.7,2.5H124.699z M109.399,77.05c0-1.233-0.55-2.125-1.65-2.675
		c-1.1-0.551-2.534-0.941-4.3-1.176c-1.767-0.232-3.742-0.375-5.925-0.424C95.341,72.725,93.166,72.6,91,72.4
		c-0.967,0.666-1.759,1.408-2.375,2.225c-0.617,0.816-0.925,1.741-0.925,2.775c0,0.732,0.158,1.399,0.475,2
		c0.316,0.6,0.875,1.115,1.675,1.549c0.8,0.434,1.875,0.775,3.225,1.025c1.35,0.25,3.058,0.375,5.125,0.375
		c2.233,0,4.066-0.133,5.5-0.4c1.433-0.267,2.575-0.633,3.425-1.1s1.441-1.025,1.775-1.675
		C109.232,78.525,109.399,77.816,109.399,77.05z M97.399,46.5c2.566,0,4.425-0.642,5.575-1.925c1.15-1.283,1.725-2.941,1.725-4.975
		c0-2.1-0.575-3.75-1.725-4.95c-1.15-1.2-3.009-1.8-5.575-1.8c-2.567,0-4.425,0.6-5.575,1.8c-1.15,1.2-1.725,2.85-1.725,4.95
		c0,1,0.141,1.917,0.425,2.75c0.283,0.833,0.725,1.559,1.325,2.175c0.6,0.617,1.357,1.1,2.275,1.45
		C95.041,46.325,96.132,46.5,97.399,46.5z"/>
	<path fill="#536A7F" d="M148.649,9.1c0,1.233-0.25,2.392-0.75,3.475c-0.5,1.084-1.184,2.034-2.05,2.85
		c-0.867,0.817-1.875,1.467-3.025,1.95c-1.15,0.483-2.375,0.725-3.675,0.725c-1.268,0-2.45-0.242-3.55-0.725
		c-1.1-0.483-2.075-1.133-2.925-1.95c-0.85-0.816-1.517-1.766-2-2.85c-0.484-1.083-0.725-2.241-0.725-3.475
		c0-1.267,0.241-2.45,0.725-3.55c0.483-1.1,1.15-2.066,2-2.9c0.85-0.833,1.825-1.483,2.925-1.95c1.1-0.466,2.283-0.7,3.55-0.7
		c1.3,0,2.525,0.233,3.675,0.7c1.15,0.467,2.158,1.117,3.025,1.95c0.867,0.833,1.55,1.8,2.05,2.9S148.649,7.833,148.649,9.1z
		 M147.049,23.3V75.15h-15.5V23.3H147.049z"/>
	<path fill="#536A7F" d="M173.398,0.3V75.15h-15.5V0.3H173.398z"/>
	<path fill="#536A7F" d="M196.648,52c0.5,4.334,1.816,7.475,3.95,9.425c2.133,1.95,4.883,2.925,8.25,2.925
		c1.8,0,3.35-0.217,4.65-0.65c1.3-0.432,2.458-0.916,3.476-1.449c1.016-0.533,1.949-1.017,2.799-1.45
		c0.851-0.433,1.742-0.649,2.676-0.649c1.232,0,2.166,0.449,2.8,1.35l4.5,5.55c-1.601,1.833-3.325,3.325-5.175,4.476
		c-1.85,1.149-3.75,2.049-5.7,2.699s-3.9,1.1-5.85,1.35s-3.809,0.375-5.575,0.375c-3.633,0-7.042-0.592-10.225-1.774
		c-3.184-1.183-5.967-2.941-8.35-5.274c-2.384-2.334-4.267-5.233-5.65-8.701c-1.384-3.466-2.075-7.5-2.075-12.099
		c0-3.467,0.591-6.75,1.775-9.85c1.183-3.1,2.883-5.816,5.1-8.15c2.216-2.333,4.9-4.183,8.05-5.55
		c3.15-1.366,6.708-2.05,10.675-2.05c3.433,0,6.575,0.534,9.425,1.6c2.85,1.067,5.301,2.617,7.35,4.65
		c2.051,2.034,3.65,4.525,4.801,7.475c1.15,2.95,1.725,6.292,1.725,10.025c0,1.167-0.05,2.117-0.15,2.85
		c-0.1,0.734-0.283,1.317-0.549,1.75c-0.268,0.434-0.625,0.734-1.076,0.9c-0.449,0.167-1.024,0.25-1.725,0.25H196.648z M216.148,43
		c0-1.233-0.159-2.433-0.475-3.6c-0.317-1.167-0.833-2.208-1.55-3.125c-0.717-0.917-1.659-1.658-2.825-2.225
		c-1.167-0.566-2.583-0.85-4.25-0.85c-2.934,0-5.233,0.842-6.9,2.525c-1.667,1.684-2.767,4.108-3.3,7.275H216.148z"/>
	<path fill="#536A7F" d="M312.896,4.4v70.75h-4.449v-60.3c0-0.867,0.05-1.783,0.149-2.75l-27.85,49.45c-0.468,0.867-1.134,1.3-2,1.3
		h-0.8c-0.867,0-1.534-0.433-2-1.3L247.347,12c0.1,1,0.15,1.95,0.15,2.85v60.3h-4.5V4.4h3.55c0.466,0,0.833,0.05,1.101,0.15
		c0.266,0.1,0.532,0.367,0.799,0.8l28.551,49.2c0.5,0.934,0.933,1.934,1.3,3c0.2-0.532,0.416-1.058,0.65-1.575
		c0.232-0.516,0.482-1.008,0.75-1.475l27.75-49.15c0.266-0.433,0.541-0.7,0.824-0.8s0.658-0.15,1.125-0.15H312.896z"/>
	<path fill="#536A7F" d="M338.096,8.25c0,0.6-0.125,1.159-0.375,1.675c-0.25,0.517-0.575,0.975-0.975,1.375
		c-0.4,0.4-0.867,0.717-1.4,0.95c-0.533,0.233-1.1,0.35-1.7,0.35c-0.6,0-1.167-0.117-1.699-0.35c-0.534-0.233-1-0.55-1.4-0.95
		s-0.717-0.858-0.95-1.375c-0.233-0.516-0.35-1.075-0.35-1.675s0.116-1.175,0.35-1.725s0.55-1.025,0.95-1.425
		c0.4-0.4,0.866-0.717,1.4-0.95c0.532-0.233,1.1-0.35,1.699-0.35c0.601,0,1.167,0.117,1.7,0.35c0.533,0.233,1,0.55,1.4,0.95
		c0.399,0.4,0.725,0.875,0.975,1.425S338.096,7.65,338.096,8.25z M336.046,25.4v49.75h-4.75V25.4H336.046z"/>
	<path fill="#536A7F" d="M389.495,75.15h-4.55c-0.468,0-0.834-0.143-1.101-0.426s-0.483-0.558-0.649-0.824L368.095,51.85
		c-0.134,0.6-0.384,1.184-0.75,1.75L352.945,73.9c-0.234,0.299-0.476,0.583-0.726,0.85c-0.25,0.268-0.575,0.4-0.975,0.4h-4.3
		l18.1-25.451l-17.4-24.299h4.551c0.466,0,0.816,0.1,1.05,0.3c0.232,0.2,0.433,0.434,0.6,0.7l14.601,21.05
		c0.066-0.266,0.175-0.55,0.324-0.85c0.15-0.3,0.309-0.6,0.476-0.9l13.649-19.25c0.2-0.3,0.417-0.55,0.65-0.75
		c0.232-0.2,0.533-0.3,0.9-0.3h4.35l-17.35,24L389.495,75.15z"/>
</g>
</svg>
